# xmcd
#
# Track frame offsets:
#	150
#	22766
#	59644
#	84358
#	99659
#	115814
#	134787
#	164682
#	180383
#	202148
#	231113
#	266238
#	284389
#	321374
#	344607
#
# Disc length: 4738 seconds
# Revision: 0
# Processed by: cddbd v1.5.2PL0 Copyright (c) Steve Scherf et al.
# Submitted via: dBpowerAMP V12.0
#
DISCID=e812800f
DTITLE=Roy Buchanan - Roy's Bluz_ Guitar Heroes Vol. 8
DYEAR=2000
DGENRE=Blues
TTITLE0=Heat of the Battle
TTITLE1=Green Onions
TTITLE2=Hey Joe
TTITLE3=My Baby Says She's Gonna Leave Me
TTITLE4=Sweet Dreams
TTITLE5=Messiah Will Come Again
TTITLE6=I Won't Tell You No Lies
TTITLE7=I'm a Ram
TTITLE8=Please Don't Turn Me Away
TTITLE9=Five String Blues
TTITLE10=Fly Night Bird
TTITLE11=My Friend Jeff
TTITLE12=Roy's Bluz
TTITLE13=Wayfairing Pilgrim
TTITLE14=In the Beginning
EXTD=
EXTT0=
EXTT1=
EXTT2=
EXTT3=
EXTT4=
EXTT5=
EXTT6=
EXTT7=
EXTT8=
EXTT9=
EXTT10=
EXTT11=
EXTT12=
EXTT13=
EXTT14=
PLAYORDER=
